<svg xmlns="http://www.w3.org/2000/svg" viewBox="0 0 144 144" width="144" height="144">
  <defs>
    <linearGradient id="bg" x1="0" y1="0" x2="0" y2="1">
      <stop offset="0" stop-color="#181311"/>
      <stop offset="1" stop-color="#080605"/>
    </linearGradient>
  </defs>
  <rect width="144" height="144" fill="url(#bg)"/>
  <g stroke="#5C2410" stroke-width="3" fill="none" stroke-linecap="square">
    <path d="M 10 24 L 10 10 L 24 10"/>
    <path d="M 120 10 L 134 10 L 134 24"/>
    <path d="M 10 120 L 10 134 L 24 134"/>
    <path d="M 120 134 L 134 134 L 134 120"/>
  </g>
  <g transform="translate(72 68)" fill="none" stroke="#5C2410" stroke-width="5" stroke-linecap="round" stroke-linejoin="round" opacity="0.9">
    <path d="M -38 6 a 38 38 0 0 1 76 0"/>
    <rect x="-44" y="2" width="20" height="32" rx="5"/>
    <rect x="24" y="2" width="20" height="32" rx="5"/>
  </g>
  <line x1="32" y1="34" x2="112" y2="106" stroke="#0A0807" stroke-width="11" stroke-linecap="round"/>
  <line x1="32" y1="34" x2="112" y2="106" stroke="#FF3030" stroke-width="6" stroke-linecap="round"/>
  <text x="72" y="128" text-anchor="middle" fill="#FF3030" font-family="'Inter','Helvetica Neue',Arial,sans-serif" font-size="11" font-weight="800" letter-spacing="3">DEAFEN</text>
</svg>
